<svg xmlns="http://www.w3.org/2000/svg" xml:space="preserve" id="Layer_1" x="0" y="0" version="1.1" viewBox="0 0 512 96"><style>.st0{fill:#00b67a}.st2{fill:#fff}</style><g id="Trustpilot_ratings_4halfstar-RGB"><path id="Rectangle-path" d="M0 0h96v96H0z" class="st0"/><path d="M104 0h96v96h-96zM208 0h96v96h-96zM312 0h96v96h-96z" class="st0"/><g id="Half"><path d="M48 0h48v96H48z" style="fill:#dcdce6" transform="translate(416)"/><path d="M416 0h48v96h-48z" class="st0"/></g><path id="Shape" d="M48 64.7 62.6 61l6.1 18.8zm33.6-24.3H55.9L48 16.2l-7.9 24.2H14.4l20.8 15-7.9 24.2 20.8-15 12.8-9.2z" class="st2"/><path d="m152 64.7 14.6-3.7 6.1 18.8zm33.6-24.3h-25.7L152 16.2l-7.9 24.2h-25.7l20.8 15-7.9 24.2 20.8-15 12.8-9.2zM256 64.7l14.6-3.7 6.1 18.8zm33.6-24.3h-25.7L256 16.2l-7.9 24.2h-25.7l20.8 15-7.9 24.2 20.8-15 12.8-9.2zM360 64.7l14.6-3.7 6.1 18.8zm33.6-24.3h-25.7L360 16.2l-7.9 24.2h-25.7l20.8 15-7.9 24.2 20.8-15 12.8-9.2zM464 64.7l14.6-3.7 6.1 18.8zm33.6-24.3h-25.7L464 16.2l-7.9 24.2h-25.7l20.8 15-7.9 24.2 20.8-15 12.8-9.2z" class="st2"/></g></svg>